<svg width="1600" height="900" viewBox="0 0 1600 900" fill="none" xmlns="http://www.w3.org/2000/svg">
  <rect width="1600" height="900" fill="white"/>
  <defs>
    <linearGradient id="bg" x1="0" y1="0" x2="0" y2="1">
      <stop offset="0" stop-color="#F5F7FB"/>
      <stop offset="1" stop-color="#E9EEF7"/>
    </linearGradient>
  </defs>
  <rect width="1600" height="900" fill="url(#bg)"/>
  <g opacity="0.4">
    <circle cx="280" cy="200" r="140" fill="#DDE4F3"/>
    <circle cx="1360" cy="160" r="160" fill="#DDE4F3"/>
    <circle cx="1250" cy="780" r="190" fill="#E6ECF7"/>
    <circle cx="420" cy="740" r="210" fill="#E6ECF7"/>
  </g>
  <g transform="translate(700 120)">
    <path d="M152 508H240V604H152V508Z" fill="#D32F2F"/>
    <path d="M196 0C136.5 0 90 17 56.5 51C23 84.5 6.5 128 6.5 182H106.5C106.5 150.5 114 127.5 129 113C144.5 98 168.5 90.5 201 90.5C232 90.5 255.5 97.5 271.5 111.5C287 125 294.5 143.5 294.5 167C294.5 188.5 287 206.5 272 221C259 233.5 239.5 246.5 213.5 260.5C187.5 274.5 167.5 290.5 153.5 308.5C139.5 326.5 132.5 347.5 132.5 371.5V404H228.5V377.5C228.5 361 233.5 346.5 243.5 334C253.5 321 270.5 308 294.5 295C334.5 273 361.5 252.5 375.5 233.5C389.5 214.5 396.5 190.5 396.5 161.5C396.5 120.5 382.5 86.5 354.5 59.5C326.5 32.5 286.5 19 234.5 19C213.5 19 194 22 176 28.5C158 35 141.5 44.5 126.5 57C111.5 69 98.5 83.5 87.5 100.5C76 117.5 67.5 136.5 62.5 157.5L152 171.5C156 146.5 168 127.5 188 114.5C208 101 232 94.5 260 94.5C286 94.5 306.5 100.5 321.5 112.5C336.5 124.5 344 140.5 344 160.5C344 179 337 194 323 205.5C309 217 284 231 248 247.5C214.5 263.5 189 282 171.5 303.5C154 325 145.5 350 145.5 378V404H152H196H240V381C240 366 244.5 353 253.5 342C262.5 331 279 318 303 303C343 279.5 371 257.5 387 238C403 218.5 411.5 193.5 411.5 163.5C411.5 121 397.5 84 369.5 53.5C341.5 23 302 7.5 251 7.5C225 7.5 201 11 179 18C157.5 25 138 35.5 121 49C104 62.5 89.5 78.5 77.5 97C65.5 115.5 56.5 136 50.5 158.5L0 145.5C8.5 115 21.5 88.5 39 66C56.5 43.5 78.5 25 105 11.5C131.5 -1.5 161.5 -8 195 -8C238 -8 274.5 3.5 304.5 26.5C334.5 49.5 349.5 80 349.5 118C349.5 145 342.5 168 328.5 186.5C316.5 201.5 296.5 217.5 268.5 234.5C240.5 251 218 267.5 200.5 283.5C183.5 299 174 316.5 174 336.5V361H82.5V333C82.5 305.5 92 280.5 111 258C130 235.5 156 216.5 188 201C214 188.5 236.5 175.5 255 162C274 148.5 284 131.5 284 111.5C284 88 275.5 69.5 258.5 55.5C241.5 41.5 218 34.5 188.5 34.5C164.5 34.5 143 38.5 124 46.5C104.5 54.5 87.5 65.5 73 79.5C58.5 93.5 47 109.5 38.5 127C30 144.5 23.5 162.5 19.5 181.5L0 177C6 151.5 15.5 129 28.5 109.5C41.5 90 58 73 78 58.5C98 44 120.5 32.5 145 24.5C169.5 16.5 195.5 12.5 223 12.5C268 12.5 305.5 25.5 335.5 51.5C365 77.5 379.5 112.5 379.5 156.5C379.5 186.5 370.5 212 352.5 233C336 252.5 311 269 277.5 283C242.5 297.5 212 317 186 342C160 367 147 394.5 147 424.5V452H58.5V426C58.5 388.5 70 356 93 328C116 300 148 278 189 262C221 247 246.5 232 265.5 217.5C285 203 295 184.5 295 161C295 130.5 282.5 106 257.5 88C232.5 70 199 61 157 61C132.5 61 111 64.5 92 71.5C73 78.5 56.5 88 42.5 100C28.5 112 17.5 125.5 9.5 140.5C1.5 155.5 -3 170.5 -3 185.5H0V182C0 128 17 84 51.5 50.5C86 17 133 0 193.5 0H196Z" fill="#D32F2F"/>
  </g>
</svg>
