<svg width="180" height="48" viewBox="0 0 180 48" fill="none" xmlns="http://www.w3.org/2000/svg">
  <!-- Shield Icon -->
  <path d="M12 4L4 8V18C4 26.84 9.61 35.1 18 38C26.39 35.1 32 26.84 32 18V8L24 4L18 6.5L12 4Z" fill="currentColor" opacity="0.2"/>
  <path d="M24 4L18 6.5L12 4L4 8V18C4 26.84 9.61 35.1 18 38C26.39 35.1 32 26.84 32 18V8L24 4Z" stroke="currentColor" stroke-width="1.5" stroke-linejoin="round"/>
  <path d="M18 12V26M12 18L18 24L24 18" stroke="currentColor" stroke-width="1.5" stroke-linecap="round" stroke-linejoin="round"/>
  
  <!-- Text: Профзащита -->
  <text x="42" y="22" font-family="Playfair Display, serif" font-size="14" font-weight="700" fill="currentColor">Профзащита</text>
  
  <!-- Text: КОЛЛЕГИЯ АДВОКАТОВ -->
  <text x="42" y="34" font-family="system-ui, sans-serif" font-size="7" font-weight="400" fill="currentColor" opacity="0.7" letter-spacing="1.5">КОЛЛЕГИЯ АДВОКАТОВ</text>
</svg>
